<svg width="20" height="18" viewBox="0 0 20 18" fill="none" xmlns="http://www.w3.org/2000/svg">
<rect x="1" width="18" height="1" fill="white"/>
<rect x="1" y="17" width="18" height="1" fill="white"/>
<rect y="1" width="1" height="16" fill="white"/>
<rect x="1" y="1" width="18" height="16" fill="white"/>
<rect x="19" y="1" width="1" height="16" fill="white"/>
<rect x="4" y="13" width="12" height="2" fill="black"/>
<rect x="15" y="6" width="2" height="8" fill="black"/>
<rect x="13" y="4" width="3" height="2" fill="black"/>
<rect x="3" y="6" width="2" height="8" fill="black"/>
<rect x="4" y="4" width="6" height="2" fill="black"/>
<rect x="7" y="2" width="1" height="7" fill="black"/>
<rect x="8" y="3" width="1" height="5" fill="black"/>
<rect x="9" y="4" width="1" height="3" fill="black"/>
<rect x="6" y="1" width="1" height="9" fill="black"/>
<rect x="10" y="5" width="1" height="1" fill="black"/>
</svg>
